<svg xmlns="http://www.w3.org/2000/svg" width="1685.333" height="1685.333" preserveAspectRatio="xMidYMid meet" version="1.0" viewBox="0 0 1264 1264"><metadata>Created by potrace 1.14, written by Peter Selinger 2001-2017</metadata><g fill="#000" stroke="none"><path d="M3009 12316 c-2 -2 -42 -6 -89 -10 -47 -3 -101 -8 -120 -10 -65 -9 -135 -20 -140 -21 -3 -1 -25 -5 -50 -9 -75 -13 -310 -73 -405 -104 -357 -117 -708 -307 -1010 -549 -129 -102 -375 -345 -461 -453 -32 -41 -61 -77 -64 -80 -10 -9 -125 -173 -158 -225 -17 -27 -35 -54 -40 -60 -9 -11 -50 -84 -110 -195 -124 -228 -272 -653 -306 -875 -2 -16 -11 -74 -20 -128 -9 -54 -20 -135 -24 -180 -9 -109 -9 -6101 1 -6197 4 -42 9 -85 11 -95 2 -11 7 -45 11 -75 6 -45 46 -254 60 -310 83 -341 253 -716 463 -1025 140 -205 395 -489 561 -626 29 -24 59 -49 65 -55 6 -5 56 -44 111 -85 263 -196 570 -356 885 -462 137 -46 348 -101 430 -112 24 -4 47 -8 50 -10 3 -2 37 -7 75 -10 39 -4 73 -9 77 -11 4 -3 45 -8 90 -12 113 -10 6722 -9 6828 1 99 9 137 14 360 52 51 9 258 65 345 94 330 109 553 223 899 461 129 89 432 371 546 509 311 374 544 820 655 1250 25 101 60 274 70 350 4 30 9 63 11 74 2 12 7 59 11 106 11 115 10 6072 0 6181 -11 118 -21 194 -32 244 -2 12 -7 37 -10 56 -14 101 -50 239 -105 410 -53 162 -85 239 -172 415 -163 329 -336 571 -588 825 -162 163 -179 179 -317 286 -257 201 -540 359 -851 475 -85 32 -274 91 -332 104 -8 2 -44 10 -80 18 -70 16 -224 43 -305 52 -27 4 -61 9 -75 13 -26 7 -6743 15 -6751 8z" transform="translate(0.000000,1264.000000) scale(0.100000,-0.100000)"/></g></svg>